PathFileType	4	(X/Y/Z)	E:\Qualisys_Data\Carbon_Farble_Plate\Data\Amateur_Runner\S14\T3\S14T3V22_c3d.trc
DataRate	CameraRate	NumFrames	NumMarkers	Units	OrigDataRate	OrigDataStartFrame	OrigNumFrames
200.000000	200.000000	5	39	mm	200.000000	0	302
Frame#	Time	LSHO			RSHO			LICST			RICST			LASIS			LHEEL			RASIS			LTROC			RTROC			SACR			LTH1			LSK4			LTH2			LTH3			RHM5			LSK2			LTH4			RTH1			LTOE			RTH2			RTH3			RTH4			LLEP			RLEP			LSK1			LSK3			RSK1			LHM5			RSK2			LFT1			RSK3			RSK4			LLME			RLME			RTOE			RHEEL			RFT1			RFT2			LFT2			
		X1	Y1	Z1	X2	Y2	Z2	X3	Y3	Z3	X4	Y4	Z4	X5	Y5	Z5	X6	Y6	Z6	X7	Y7	Z7	X8	Y8	Z8	X9	Y9	Z9	X10	Y10	Z10	X11	Y11	Z11	X12	Y12	Z12	X13	Y13	Z13	X14	Y14	Z14	X15	Y15	Z15	X16	Y16	Z16	X17	Y17	Z17	X18	Y18	Z18	X19	Y19	Z19	X20	Y20	Z20	X21	Y21	Z21	X22	Y22	Z22	X23	Y23	Z23	X24	Y24	Z24	X25	Y25	Z25	X26	Y26	Z26	X27	Y27	Z27	X28	Y28	Z28	X29	Y29	Z29	X30	Y30	Z30	X31	Y31	Z31	X32	Y32	Z32	X33	Y33	Z33	X34	Y34	Z34	X35	Y35	Z35	X36	Y36	Z36	X37	Y37	Z37	X38	Y38	Z38	X39	Y39	Z39	

1	0	-2886.16552734375	1485.536865234375	-483.522216796875	-2936.74072265625	1480.431762695312	-193.6800994873047	-2947.553955078125	1033.63916015625	-480.7559814453125	-2934.503662109375	1037.26806640625	-207.1180267333984	-2915.426025390625	977.0980224609375	-460.8572998046875	-3549.56494140625	408.647216796875	-360.3226928710938	-2910.535400390625	996.2701416015625	-228.54443359375	-3070.241455078125	940.3869018554688	-501.7617492675781	-3038.77880859375	918.7392578125	-170.2052154541016	-3081.42626953125	1043.311279296875	-352.5976867675781	-3094.266357421875	708.19482421875	-503.8163757324219	-3398.06005859375	504.6455688476562	-441.2039794921875	-3162.8759765625	738.672119140625	-474.2799072265625	-3123.880126953125	614.6126708984375	-484.2641906738281	-2612.63134765625	155.7557373046875	-162.0661163330078	-3315.11279296875	557.4720458984375	-461.6806640625	-3194.159423828125	645.45361328125	-458.4849853515625	-2830.519775390625	748.032470703125	-179.16552734375	-3511.73486328125	156.0550537109375	-421.7406005859375	-2902.11572265625	720.1937866210938	-168.1195220947266	-2790.50439453125	658.5386352539062	-201.7670288085938	-2863.841552734375	625.4299926757812	-184.0060424804688	-3207.139892578125	573.4006958007812	-473.5491943359375	-2813.5927734375	575.4426879882812	-182.4562530517578	-3271.45751953125	489.1480407714844	-474.3002014160156	-3356.936767578125	435.5475463867188	-458.9996948242188	-2774.826904296875	456.26171875	-176.3224334716797	-3550.337890625	226.9912261962891	-467.6713562011719	-2858.614501953125	435.832275390625	-183.0954132080078	-3569.9951171875	387.7116394042969	-331.9737854003906	-2756.703857421875	353.7438354492188	-186.0256652832031	-2837.44677734375	341.2241516113281	-190.6512145996094	-3521.3466796875	371.5035400390625	-427.1209716796875	-2755.4990234375	171.7503051757812	-202.4343719482422	-2546.564453125	198.8655853271484	-223.0089111328125	-2793.802734375	122.348747253418	-258.2302551269531	-2768.313720703125	101.823486328125	-286.6692504882812	-2788.443603515625	99.51996612548828	-236.4811096191406	-3582.3251953125	401.3135986328125	-381.0562133789062
2	0.005	-2865.15283203125	1485.182006835938	-482.5507507324219	-2916.36181640625	1479.68701171875	-192.6132659912109	-2927.560546875	1033.6650390625	-480.2296142578125	-2915.58837890625	1035.742065429688	-207.2130889892578	-2894.1630859375	976.48876953125	-460.747314453125	-3531.028564453125	418.1900939941406	-358.942138671875	-2889.82763671875	995.1045532226562	-228.1529998779297	-3049.096923828125	939.3545532226562	-501.9945068359375	-3019.543701171875	916.5682983398438	-171.3049621582031	-3061.264404296875	1042.057250976562	-351.9061889648438	-3071.85986328125	706.8641357421875	-504.5175476074219	-3377.371337890625	509.6832580566406	-440.7897644042969	-3139.8916015625	735.9630737304688	-474.8682861328125	-3100.68310546875	612.4474487304688	-484.3372497558594	-2585.48779296875	158.7930603027344	-161.3436889648438	-3291.951171875	559.657958984375	-461.4141235351562	-3170.771484375	643.099609375	-458.68359375	-2811.682861328125	743.4617919921875	-178.7556457519531	-3498.18310546875	165.3847045898438	-421.8215637207031	-2884.150146484375	715.5808715820312	-166.360107421875	-2772.783203125	653.4960327148438	-201.7292785644531	-2848.020751953125	621.04833984375	-182.9962615966797	-3183.865966796875	572.3980102539062	-473.764892578125	-2796.51953125	571.5814819335938	-183.3589172363281	-3250.92724609375	490.1395263671875	-474.3609313964844	-3338.020263671875	439.0003967285156	-458.37255859375	-2754.27978515625	454.7308959960938	-176.5223388671875	-3534.898193359375	236.8326110839844	-466.2893981933594	-2838.2958984375	432.9779052734375	-183.7074737548828	-3551.179443359375	397.7244873046875	-330.4317932128906	-2733.92919921875	353.5229797363281	-183.907470703125	-2815.51708984375	339.0205383300781	-191.9860076904297	-3505.309814453125	381.9535522460938	-426.4492797851562	-2727.951416015625	170.4413299560547	-202.3258361816406	-2519.83056640625	204.0693969726562	-221.7769622802734	-2764.35546875	119.9133911132812	-258.0386352539062	-2738.638916015625	100.4044418334961	-286.8262023925781	-2759.8544921875	97.98426055908205	-236.7753753662109	-3562.893798828125	410.7472839355469	-378.8506469726562
3	0.01	-2845.12939453125	1484.017822265625	-481.9934387207031	-2896.2841796875	1477.936645507812	-191.5574035644531	-2907.522705078125	1032.810180664062	-480.5440673828125	-2894.02587890625	1033.709838867188	-206.8925628662109	-2874.1552734375	976.56884765625	-460.5053405761719	-3512.132568359375	428.0959167480469	-357.9342041015625	-2869.947509765625	993.0175170898438	-227.8515472412109	-3027.286376953125	937.4279174804688	-501.9799194335938	-2998.53564453125	914.1689453125	-171.1302032470703	-3041.25927734375	1040.520751953125	-351.8427124023438	-3048.7783203125	704.8455810546875	-504.3892822265625	-3354.590576171875	513.7723999023438	-440.3876342773438	-3117.462890625	733.9432983398438	-475.3827514648438	-3077.300048828125	610.539794921875	-484.6922302246094	-2559.3310546875	161.0158386230469	-160.598388671875	-3268.45556640625	561.5375366210938	-461.7463684082031	-3147.759033203125	640.7272338867188	-459.2129516601562	-2794.53271484375	739.1077880859375	-178.6949615478516	-3484.93017578125	173.6836090087891	-421.1556091308594	-2866.83447265625	711.5609741210938	-165.0268707275391	-2756.339599609375	648.5442504882812	-202.7601165771484	-2831.41455078125	616.9602661132812	-182.6858825683594	-3160.133544921875	570.6196899414062	-474.46484375	-2778.1630859375	566.886474609375	-183.9648742675781	-3229.614013671875	490.5446472167969	-474.4409790039062	-3318.24951171875	442.3260498046875	-458.3949279785156	-2734.0654296875	453.4167175292969	-177.0176391601562	-3520.341064453125	247.0173645019531	-465.8752746582031	-2817.242919921875	429.4053039550781	-183.9693298339844	-3533.89404296875	408.0301208496094	-329.0067138671875	-2712.53125	352.1835327148438	-184.4088897705078	-2791.82421875	336.1658935546875	-192.8370361328125	-3486.587646484375	390.074951171875	-425.7012634277344	-2701.765625	169.6798400878906	-201.9185028076172	-2494.6953125	208.0522155761719	-220.75537109375	-2736.830810546875	118.5094528198242	-259.2831726074219	-2710.7880859375	99.40916442871094	-287.2779846191406	-2731.658203125	95.60189819335938	-236.5127105712891	-3543.830078125	421.9052429199219	-378.5648803710938
4	0.015	-2824.523681640625	1482.044799804688	-480.9411926269531	-2875.863037109375	1476.307250976562	-190.8883056640625	-2887.382568359375	1032.025512695312	-479.7878723144531	-2874.9501953125	1032.035034179688	-206.4593048095703	-2853.33837890625	975.8367309570312	-459.9693908691406	-3492.0400390625	438.3990173339844	-358.5132751464844	-2849.640869140625	991.11962890625	-228.2406616210938	-3005.967041015625	935.3291625976562	-502.2788696289062	-2977.85888671875	911.5431518554688	-170.9467468261719	-3021.18505859375	1038.359130859375	-351.0311584472656	-3025.259765625	701.8837280273438	-504.5008239746094	-3331.2841796875	517.6259765625	-439.8169860839844	-3094.572509765625	730.7833251953125	-476.1139221191406	-3053.453125	608.2656860351562	-485.1405639648438	-2535.602783203125	162.6149444580078	-160.5875854492188	-3244.174560546875	563.0220947265625	-462.0879516601562	-3124.13232421875	637.71630859375	-459.7366943359375	-2776.7685546875	734.8713989257812	-177.8190155029297	-3472.830078125	182.3874969482422	-420.3740234375	-2849.04541015625	707.8206176757812	-163.3408813476562	-2739.983642578125	644.5429077148438	-202.6543579101562	-2814.95458984375	612.7802124023438	-181.4765625	-3135.84423828125	568.6519165039062	-474.8202819824219	-2760.91845703125	562.0303344726562	-184.71484375	-3207.645751953125	491.0326538085938	-474.65625	-3297.66943359375	444.8626403808594	-457.8108520507812	-2713.569091796875	451.039794921875	-176.4042510986328	-3505.309814453125	257.1987915039062	-464.8489685058594	-2796.798095703125	426.3968505859375	-184.1551818847656	-3513.872314453125	416.8804321289062	-326.5563659667969	-2689.87451171875	350.4180603027344	-184.3369140625	-2770.143310546875	334.1166687011719	-193.498779296875	-3468.19921875	399.8783569335938	-424.3182983398438	-2677.39599609375	168.5412445068359	-202.6188201904297	-2471.2724609375	210.9414215087891	-219.6886138916016	-2712.900634765625	114.8964614868164	-260.1716003417969	-2684.55029296875	98.1930923461914	-287.8831787109375	-2706.02734375	93.75730895996094	-236.7950134277344	-3523.9375	433.0663757324219	-377.3364562988281
5	0.02	-2804.760986328125	1480.937622070312	-480.4254150390625	-2855.691162109375	1474.40673828125	-189.8216705322266	-2867.30712890625	1030.830444335938	-479.5988159179688	-2855.225341796875	1030.033569335938	-205.8604431152344	-2832.994384765625	974.7503051757812	-460.3609008789062	-3470.2314453125	446.9555969238281	-355.3846130371094	-2828.43212890625	989.6022338867188	-227.4855651855469	-2984.96826171875	933.4431762695312	-502.5755310058594	-2957.91845703125	908.8878173828124	-171.3952331542969	-3001.160888671875	1035.951538085938	-350.341064453125	-3001.627197265625	699.6456298828125	-504.3765258789062	-3308.0849609375	521.1240234375	-440.0746154785156	-3071.379150390625	727.595703125	-476.5758972167969	-3029.212890625	605.269287109375	-485.5257873535156	-2513.00341796875	163.3111114501953	-160.1782684326172	-3219.10791015625	563.2516479492188	-462.6629333496094	-3100.05078125	633.8782958984375	-460.1632995605469	-2758.89013671875	731.1306762695312	-176.8858032226562	-3458.65380859375	190.9957275390625	-419.3262634277344	-2831.27587890625	703.1968383789062	-161.4815979003906	-2722.81982421875	640.9988403320312	-201.9856567382812	-2797.838134765625	608.5597534179688	-180.7404479980469	-3111.54296875	566.2381591796875	-476.0873718261719	-2741.700927734375	558.3135375976562	-185.6985473632812	-3184.56298828125	489.6059875488281	-474.1535034179688	-3276.53955078125	447.10693359375	-457.6591796875	-2693.599609375	450.1167907714844	-178.8477478027344	-3491.058837890625	267.5147399902344	-463.23828125	-2775.9873046875	423.6745910644531	-184.6143341064453	-3494.185546875	426.8730163574219	-327.3885192871094	-2668.66357421875	349.4352111816406	-185.6432037353516	-2748.73779296875	331.5097045898438	-193.4383239746094	-3447.014892578125	407.6954040527344	-422.5483703613281	-2654.627197265625	166.7997283935547	-203.9426574707031	-2449.501953125	212.6862640380859	-219.0650787353516	-2688.90283203125	114.0961685180664	-261.5926208496094	-2659.77197265625	96.58263397216795	-288.6585693359375	-2681.515625	92.66259002685548	-238.4008178710938	-3503.0234375	443.8193969726562	-376.5855102539062
